# xmcd
# Track frame offsets:
# 150
# 11757
# 25887
# 39542
# 59517
# 70367
# 97937
# 111492
# 125412
# 142177
# 153397
# 167017
# 180667
#
# Disc length: 2586 seconds
# Revision: 0
# Processed by: cddbd v1.4PL0 Copyright (c) Steve Scherf et al.
# Submitted via: VisiTrax 2.9.5.181 - For more info visit www.synapsa.com
#
DISCID=b70a180d
DTITLE=Cowboy Group - The Wonderful World of Country and Folk
DYEAR=1988
DGENRE=Country
TTITLE0=California Dreamin'
TTITLE1=Jambalaya (On The Bayou)
TTITLE2=Georgia On My Mind
TTITLE3=You've Got a Friend
TTITLE4=Who'll Stop the Rain
TTITLE5=You've Lost Tha Lovin' Feelin'
TTITLE6=San Francisco
TTITLE7=Silence is Golden
TTITLE8=You Made It Right
TTITLE9=On The Road Again
TTITLE10=Country Roads Take Me Home
TTITLE11=The Sounds Of Silence
TTITLE12=Blowin' In The Wind
EXTD=
EXTT0=
EXTT1=
EXTT2=
EXTT3=
EXTT4=
EXTT5=
EXTT6=
EXTT7=
EXTT8=
EXTT9=
EXTT10=
EXTT11=
EXTT12=
PLAYORDER=
